<?xml version="1.0" encoding="utf-8"?>
<!-- Generator: Adobe Illustrator 15.0.0, SVG Export Plug-In  -->
<!DOCTYPE svg PUBLIC "-//W3C//DTD SVG 1.1//EN" "http://www.w3.org/Graphics/SVG/1.1/DTD/svg11.dtd" [
	<!ENTITY ns_flows "http://ns.adobe.com/Flows/1.0/">
]>
<svg version="1.1"
	 xmlns="http://www.w3.org/2000/svg" xmlns:xlink="http://www.w3.org/1999/xlink" xmlns:a="http://ns.adobe.com/AdobeSVGViewerExtensions/3.0/"
	 x="0px" y="0px" width="500px" height="119px" viewBox="0.09 -0.57 500 119" enable-background="new 0.09 -0.57 500 119"
	 xml:space="preserve">
<defs>
</defs>
<path fill-rule="evenodd" clip-rule="evenodd" fill="#333333" d="M10.4,47.51c2.64-3.2,6.47-4.61,11.54-4.61
	c5.07,0,8.77,1.26,11.06,4.35c2.3,3.07,3.47,9.19,3.47,15.19H6.47C6.47,56.43,7.77,50.7,10.4,47.51z M21.33,88.51
	c-5.45,0-9.26-1.74-11.5-4.99c-2.24-3.25-3.35-8.09-3.35-15.09h36.16l0.23-5.16c0-9.07-1.75-15.61-5.21-19.74
	c-3.49-4.14-8.74-6.19-15.77-6.19C7.29,37.34,0,46.93,0,66.09c0,9.6,1.52,16.71,4.55,21.32c3.04,4.61,8.4,6.91,16.08,7.01
	c5.51,0,12.3-0.53,20.32-1.54l-0.24-5.38l-3.18,0.33C32.15,88.3,26.74,88.51,21.33,88.51z"/>
<path fill-rule="evenodd" clip-rule="evenodd" fill="#333333" d="M59.09,48.1l2.53-1.12c1.64-0.81,3.97-1.62,6.98-2.41
	c2.98-0.79,5.85-1.18,8.58-1.18c5.58,0,9.42,1.54,11.14,4.56c1.69,3.01,2.77,8.83,2.77,17.39v29.09h7V65
	c0-10.51-1.53-17.75-4.11-21.69c-2.6-3.96-7.97-5.94-15.73-5.94c-6.14,0-12.16,1.75-19.16,5.25v-4.19h-6v56h6V48.1z"/>
<rect x="222.09" y="13.43" fill-rule="evenodd" clip-rule="evenodd" fill="#016AA9" width="11" height="81"/>
<path fill-rule="evenodd" clip-rule="evenodd" fill="#016AA9" d="M281.09,46.23v35.2l-1.79,0.55c-3.5,1.16-7.08,1.73-10.58,1.73
	c-3.79,0-6.65-1.39-8.45-4.24c-1.85-2.84-2.75-7.65-2.75-14.44c0-6.8,1.02-11.71,3.06-14.73c2.05-3.02,6.13-4.53,12.04-4.53
	C274.59,45.77,277.09,45.92,281.09,46.23z M281.09,91.36v27.07h11V36.38l-3.27-0.34c-7.53-0.68-12.89-1.05-16.53-1.05
	c-10,0-16.96,2.22-20.99,6.6c-4.06,4.39-6.03,12.13-6.03,23.25c0,11.11,1.74,18.89,5.22,23.34c3.46,4.45,9.16,6.64,16.83,6.64
	C271.42,94.82,276.09,93.64,281.09,91.36z"/>
<path fill-rule="evenodd" clip-rule="evenodd" fill="#016AA9" d="M340.09,80.67l-1.7,0.69c-3.45,1.51-7.2,2.22-11.3,2.22
	c-4.22,0-7.04-1.14-8.18-3.46c-1.14-2.28-1.82-6.79-1.82-13.5v-29.2h-12V66.5c0,10.36,1.21,17.59,3.89,21.73
	c2.66,4.14,7.85,6.19,15.74,6.19c4.72,0,9.37-1.56,15.37-4.7v3.7h12v-56h-12V80.67z"/>
<path fill-rule="evenodd" clip-rule="evenodd" fill="#016AA9" d="M377.09,28.43v-12h-12v12H377.09z M377.09,94.43v-56h-12v56H377.09
	z"/>
<rect x="388.09" y="13.43" fill-rule="evenodd" clip-rule="evenodd" fill="#016AA9" width="12" height="81"/>
<path fill-rule="evenodd" clip-rule="evenodd" fill="#016AA9" d="M424.22,60.43c0.06-5,1.02-9.28,2.94-11.65
	c1.9-2.33,4.93-3.54,9.09-3.54c4.14,0,7.12,1.16,8.86,3.39s2.65,6.8,2.65,11.8H424.22z M438.14,83.59c-5.29,0-8.9-0.83-10.83-3.04
	c-1.92-2.2-2.94-5.12-3-10.12h34.59l0.79-9.14c0-17.36-7.82-26.19-23.45-26.19c-16.15,0-24.2,10.06-24.2,30.25
	c0,10.18,1.8,17.54,5.41,22.17c3.6,4.64,9.52,6.92,17.78,6.92c6.55,0,14.06-0.9,22.55-2.64l-0.25-9.21l-3.12,0.34
	C448.83,83.38,443.42,83.59,438.14,83.59z"/>
<path fill-rule="evenodd" clip-rule="evenodd" fill="#016AA9" d="M482.09,94.43V55.46l2.02-1.01c4.53-1.99,8.98-3.65,15.98-4.91
	V37.37c-7,1.2-13,3.85-18,7.94v-6.88h-13v56H482.09z"/>
<path fill-rule="evenodd" clip-rule="evenodd" fill="#016AA9" d="M159.59,0l-48.5,28.2v55.56c0,5.89,4.53,10.67,10.41,10.67h5.51
	c2.94,0,5.33-2.56,5.33-5.5c0-2.94-2.39-5.5-5.33-5.5h-5.93V34.36l38-22.04l38,22.04v49.07h-7.03c-5.76,0-5.97-1.82-5.97-6.31V50.3
	c0-6.99-1.65-12.19-4.92-15.42c-3.28-3.21-8.61-4.81-16.01-4.81c-7.45,0-15.56,1.08-24.37,3.18l0.51,9.38l3.88-0.26
	c7.8-0.66,14.29-0.99,19.47-0.99c2.75,0,4.87,0.66,6.31,1.98c1.41,1.31,2.14,3.58,2.14,6.83v4.35l-15.71,1.35
	c-6.83,0.59-11.91,2.26-15.19,5.01c-3.28,2.77-4.92,7.23-4.92,13.39c0,12.92,6.04,19.36,18.13,19.36c6.56,0,13.12-1.5,19.61-4.52
	c3.8,3.03,10,5.29,17.04,5.29h7.77c5.88,0,10.26-4.78,10.26-10.67V28.2L159.59,0z M171.09,80.14l-2.2,0.73
	c-4.56,1.31-8.87,1.93-12.93,1.93c-4.96,0-7.42-2.79-7.42-8.4c0-5.58,2.8-8.63,8.42-9.12l14.13-1.34V80.14z"/>
</svg>
